<svg aria-hidden="true" style="width:0;height:0;position:absolute;overflow:hidden" xmlns="http://www.w3.org/2000/svg"><defs><symbol id="icon-arrow-up" viewBox="0 0 24 24"><path d="M5.707 12.707 11 7.414V19a1 1 0 0 0 2 0V7.414l5.293 5.293a.999.999 0 1 0 1.414-1.414l-7-7A1.008 1.008 0 0 0 12 4a.997.997 0 0 0-.707.293l-7 7a.999.999 0 1 0 1.414 1.414z"/></symbol><symbol id="icon-arrow-down" viewBox="0 0 24 24"><path d="M18.293 11.293 13 16.586V5a1 1 0 0 0-2 0v11.586l-5.293-5.293a.999.999 0 1 0-1.414 1.414l7 7a1.006 1.006 0 0 0 1.414 0l7-7a.999.999 0 1 0-1.414-1.414z"/></symbol><symbol id="icon-approval" viewBox="0 0 32 32"><path d="m30.821 30.567.017-.025A.973.973 0 0 0 31.02 30c0-.055-.011-.106-.02-.159V16a.99.99 0 0 0-.061-.325c-.008-.022-.019-.043-.028-.065a.992.992 0 0 0-.224-.334l-.001-.002L27 11.789V7.21a1 1 0 1 0-2 0v10.868l-3.327 2.18-4.966-4.965a.999.999 0 0 0-1.414 0l-4.966 4.965L7 18.078V3h14.54a1 1 0 1 0 0-2H6a1 1 0 0 0-1 1v9.789l-3.687 3.484-.001.002c-.1.094-.17.21-.224.334-.01.022-.021.043-.028.065-.035.105-.06.213-.06.326v14c0 .016.006.03.007.046.002.05.013.098.022.147s.019.098.035.145c.006.015.006.03.012.045.013.029.033.053.049.081a.86.86 0 0 0 .078.13c.029.039.063.073.096.107s.068.066.107.096a.86.86 0 0 0 .13.078c.028.016.052.036.081.049.012.005.024.003.037.008.11.04.225.068.346.068h28.02a.974.974 0 0 0 .57-.2c.018-.014.038-.023.055-.037a.94.94 0 0 0 .176-.196zm-7.704-8.864.268-.176 3.163-2.07.003-.003L29 17.851v9.734l-5.883-5.882zM27 14.541l1.393 1.316-1.393.912v-2.228zm-24 3.31 2.449 1.604.003.003 3.431 2.246L3 27.586v-9.735zm2-1.082-1.393-.911L5 14.541v2.228zM4.414 29 16 17.414 27.586 29H4.414z"/><path d="M10.684 6.301A1 1 0 0 0 9.316 7.76l5.311 4.971a.997.997 0 0 0 1.368 0l10.689-10a1.001 1.001 0 0 0-1.367-1.461l-10.006 9.361-4.627-4.33z"/></symbol></defs></svg>