<svg aria-hidden="true" style="position: absolute; width: 0; height: 0; overflow: hidden;" version="1.1" xmlns="http://www.w3.org/2000/svg" xmlns:xlink="http://www.w3.org/1999/xlink">
<defs>
<symbol id="icon-arrow-up" viewBox="0 0 24 24">
<path d="M5.707 12.707l5.293-5.293v11.586c0 0.552 0.448 1 1 1s1-0.448 1-1v-11.586l5.293 5.293c0.391 0.391 1.024 0.391 1.414 0s0.391-1.024 0-1.414l-7-7c-0.092-0.092-0.202-0.166-0.324-0.217s-0.253-0.076-0.383-0.076c-0.256 0-0.512 0.098-0.707 0.293l-7 7c-0.391 0.391-0.391 1.024 0 1.414s1.024 0.391 1.414 0z"></path>
</symbol>
<symbol id="icon-arrow-down" viewBox="0 0 24 24">
<path d="M18.293 11.293l-5.293 5.293v-11.586c0-0.552-0.448-1-1-1s-1 0.448-1 1v11.586l-5.293-5.293c-0.391-0.391-1.024-0.391-1.414 0s-0.391 1.024 0 1.414l7 7c0.092 0.092 0.202 0.166 0.324 0.217 0.245 0.101 0.521 0.101 0.766 0 0.118-0.049 0.228-0.121 0.324-0.217l7-7c0.391-0.391 0.391-1.024 0-1.414s-1.024-0.391-1.414 0z"></path>
</symbol>
<symbol id="icon-approval" viewBox="0 0 32 32">
<path d="M30.821 30.567c0.006-0.009 0.011-0.017 0.017-0.025 0.105-0.158 0.182-0.337 0.182-0.542 0-0.055-0.011-0.106-0.020-0.159v-13.841c0-0.113-0.025-0.221-0.061-0.325-0.008-0.022-0.019-0.043-0.028-0.065-0.054-0.124-0.124-0.24-0.224-0.334 0-0.001 0-0.002-0.001-0.002l-3.686-3.485v-4.579c0-0.553-0.447-1-1-1s-1 0.447-1 1v10.868l-3.327 2.18-4.966-4.965c-0.391-0.391-1.023-0.391-1.414 0l-4.966 4.965-3.327-2.18v-15.078h14.54c0.553 0 1-0.447 1-1s-0.447-1-1-1h-15.54c-0.553 0-1 0.447-1 1v9.789l-3.687 3.484c-0.001 0-0.001 0.001-0.001 0.002-0.1 0.094-0.17 0.21-0.224 0.334-0.010 0.022-0.021 0.043-0.028 0.065-0.035 0.105-0.060 0.213-0.060 0.326v14c0 0.016 0.006 0.030 0.007 0.046 0.002 0.050 0.013 0.098 0.022 0.147s0.019 0.098 0.035 0.145c0.006 0.015 0.006 0.030 0.012 0.045 0.013 0.029 0.033 0.053 0.049 0.081 0.023 0.045 0.047 0.089 0.078 0.13 0.029 0.039 0.063 0.073 0.096 0.107s0.068 0.066 0.107 0.096c0.041 0.031 0.085 0.055 0.13 0.078 0.028 0.016 0.052 0.036 0.081 0.049 0.012 0.005 0.024 0.003 0.037 0.008 0.11 0.040 0.225 0.068 0.346 0.068h28c0.007 0 0.015 0 0.020 0 0.217 0 0.406-0.083 0.57-0.2 0.018-0.014 0.038-0.023 0.055-0.037 0.069-0.057 0.125-0.122 0.176-0.196zM23.117 21.703l0.268-0.176 3.163-2.070c0.001-0.001 0.002-0.002 0.003-0.003l2.449-1.603v9.734l-5.883-5.882zM27 14.541l1.393 1.316-1.393 0.912v-2.228zM3 17.851l2.449 1.604c0.001 0.001 0.002 0.002 0.003 0.003l3.431 2.246-5.883 5.882v-9.735zM5 16.769l-1.393-0.911 1.393-1.317v2.228zM4.414 29l11.586-11.586 11.586 11.586h-23.172z"></path>
<path d="M10.684 6.301c-0.402-0.377-1.037-0.357-1.413 0.046-0.378 0.402-0.358 1.035 0.045 1.413l5.311 4.971c0.192 0.18 0.438 0.27 0.684 0.27s0.491-0.090 0.684-0.27l10.689-10c0.403-0.378 0.424-1.011 0.047-1.414-0.379-0.402-1.010-0.424-1.414-0.047l-10.006 9.361-4.627-4.33z"></path>
</symbol>

</defs>
</svg>
